<svg width="32" height="32" viewBox="0 0 32 32" fill="none" xmlns="http://www.w3.org/2000/svg">
<path fill-rule="evenodd" clip-rule="evenodd" d="M5.15024 5.15024C5.7587 4.54178 6.58395 4.19995 7.44444 4.19995H16.0002C16.442 4.19995 16.8002 4.55812 16.8002 4.99995C16.8002 5.44178 16.442 5.79995 16.0002 5.79995H7.44444C7.0083 5.79995 6.59001 5.97321 6.28161 6.28161C5.97321 6.59001 5.79995 7.0083 5.79995 7.44444V24.5559C5.79995 24.992 5.97321 25.4103 6.28161 25.7187C6.59001 26.0271 7.0083 26.2004 7.44444 26.2004H24.5559C24.992 26.2004 25.4103 26.0271 25.7187 25.7187C26.0271 25.4103 26.2004 24.992 26.2004 24.5559V16.0002C26.2004 15.5583 26.5585 15.2002 27.0004 15.2002C27.4422 15.2002 27.8004 15.5583 27.8004 16.0002V24.5559C27.8004 25.4164 27.4585 26.2416 26.8501 26.8501C26.2416 27.4585 25.4164 27.8004 24.5559 27.8004H7.44444C6.58395 27.8004 5.7587 27.4585 5.15024 26.8501C4.54178 26.2416 4.19995 25.4164 4.19995 24.5559V7.44444C4.19995 6.58395 4.54178 5.7587 5.15024 5.15024Z" fill="#333333"/>
<path fill-rule="evenodd" clip-rule="evenodd" d="M8.72133 21.1333C8.01839 20.4304 8.01839 19.2907 8.72133 18.5878L12.7083 14.6008C13.4112 13.8979 14.5509 13.8979 15.2538 14.6008L15.5684 14.9154L14.4371 16.0468L14.1225 15.7322C14.0444 15.6541 13.9177 15.6541 13.8396 15.7322L9.8527 19.7191C9.7746 19.7972 9.7746 19.9239 9.8527 20.002L12.5253 22.6746C12.6034 22.7527 12.73 22.7527 12.8081 22.6746L16.7951 18.6876C16.8732 18.6095 16.8732 18.4829 16.7951 18.4048L16.4805 18.0902L17.6118 16.9588L17.9264 17.2734C18.6294 17.9764 18.6294 19.1161 17.9264 19.819L13.9395 23.8059C13.2366 24.5089 12.0969 24.5089 11.3939 23.8059L8.72133 21.1333Z" fill="#333333"/>
<path fill-rule="evenodd" clip-rule="evenodd" d="M21.5872 13.898L25.5742 9.91104C25.6523 9.83293 25.6523 9.7063 25.5742 9.62819L22.9016 6.9556C22.8235 6.87749 22.6968 6.87749 22.6187 6.9556L18.6318 10.9425C18.5537 11.0206 18.5537 11.1473 18.6318 11.2254L18.9464 11.54L17.815 12.6713L17.5004 12.3567C16.7975 11.6538 16.7975 10.5141 17.5004 9.81115L21.4873 5.82423C22.1903 5.12128 23.33 5.12128 24.0329 5.82423L26.7055 8.49682C27.4085 9.19977 27.4085 10.3395 26.7055 11.0424L22.7186 15.0293C22.0157 15.7323 20.876 15.7323 20.173 15.0293L19.8584 14.7147L20.9898 13.5834L21.3044 13.898C21.3825 13.9761 21.5091 13.9761 21.5872 13.898Z" fill="#333333"/>
<path d="M14.6768 17.8527C14.3543 17.5302 14.3543 17.0074 14.6768 16.685L20.2605 11.1012C20.583 10.7788 21.1057 10.7788 21.4282 11.1012C21.7506 11.4237 21.7506 11.9465 21.4282 12.2689L15.8444 17.8527C15.522 18.1751 14.9992 18.1751 14.6768 17.8527Z" fill="#333333"/>
</svg>
