<svg width="32" height="32" viewBox="0 0 32 32" fill="none" xmlns="http://www.w3.org/2000/svg">
<path d="M16 5.79995C16.4418 5.79995 16.8 5.44178 16.8 4.99995C16.8 4.55812 16.4418 4.19995 16 4.19995V5.79995ZM7.44444 4.99995L7.44444 4.19995L7.44444 4.99995ZM5 7.44439L4.2 7.44439L5 7.44439ZM5 24.5555L5.8 24.5555L5 24.5555ZM7.44444 26.9999L7.44444 26.1999L7.44444 26.9999ZM24.5556 26.9999L24.5556 27.7999L24.5556 26.9999ZM27 24.5555H27.8H27ZM27.8 13.5555C27.8 13.1137 27.4418 12.7555 27 12.7555C26.5582 12.7555 26.2 13.1137 26.2 13.5555H27.8ZM15.8288 22.4184L16.1712 21.6955L16.1712 21.6955L15.8288 22.4184ZM9.42983 19.3874L9.08736 20.1104L9.08736 20.1104L9.42983 19.3874ZM22.5702 18.6644L22.2277 19.3874L22.2277 19.3874L22.5702 18.6644ZM22.5702 19.3874L22.2277 18.6644L22.2277 18.6644L22.5702 19.3874ZM16.1712 22.4184L16.5137 23.1414L16.5137 23.1414L16.1712 22.4184ZM9.42983 18.6644L9.08736 17.9414L9.08736 17.9414L9.42983 18.6644ZM23.5 4.65751L24.0604 5.22848L24.0651 5.22382L23.5 4.65751ZM24.7546 3.99988L24.7546 3.19988L24.7546 3.99988ZM26.5 7.5L27.0657 8.06569C27.0915 8.03992 27.1154 8.01243 27.1374 7.98339L26.5 7.5ZM18 16L18.1735 16.7809C18.3221 16.7479 18.4581 16.6733 18.5657 16.5657L18 16ZM13.5 17L12.7509 16.7191C12.6479 16.9939 12.7036 17.3031 12.8961 17.5247C13.0886 17.7463 13.387 17.8446 13.6735 17.7809L13.5 17ZM15 13L14.4396 12.429C14.3563 12.5108 14.2919 12.6098 14.2509 12.7191L15 13ZM16 4.19995H7.44444V5.79995H16V4.19995ZM7.44444 4.19995C6.58396 4.19995 5.75873 4.54177 5.15028 5.15022L6.28165 6.2816C6.59004 5.9732 7.00831 5.79995 7.44444 5.79995L7.44444 4.19995ZM5.15028 5.15022C4.54182 5.75868 4.2 6.58391 4.2 7.44439L5.8 7.44439C5.8 7.00826 5.97325 6.58999 6.28165 6.2816L5.15028 5.15022ZM4.2 7.44439L4.2 24.5555L5.8 24.5555L5.8 7.44439L4.2 7.44439ZM4.2 24.5555C4.2 25.416 4.54182 26.2412 5.15028 26.8497L6.28165 25.7183C5.97325 25.4099 5.8 24.9916 5.8 24.5555L4.2 24.5555ZM5.15028 26.8497C5.75873 27.4581 6.58396 27.7999 7.44444 27.7999L7.44444 26.1999C7.00831 26.1999 6.59004 26.0267 6.28165 25.7183L5.15028 26.8497ZM7.44444 27.7999H24.5556V26.1999H7.44444V27.7999ZM24.5556 27.7999C25.416 27.7999 26.2413 27.4581 26.8497 26.8497L25.7184 25.7183C25.41 26.0267 24.9917 26.1999 24.5556 26.1999L24.5556 27.7999ZM26.8497 26.8497C27.4582 26.2412 27.8 25.416 27.8 24.5555L26.2 24.5555C26.2 24.9916 26.0267 25.4099 25.7184 25.7183L26.8497 26.8497ZM27.8 24.5555V13.5555H26.2V24.5555H27.8ZM16.1712 21.6955L9.7723 18.6644L9.08736 20.1104L15.4863 23.1414L16.1712 21.6955ZM16.8798 16.8542L22.2277 19.3874L22.9126 17.9414L17.5647 15.4082L16.8798 16.8542ZM22.2277 18.6644L15.8288 21.6955L16.5137 23.1414L22.9126 20.1104L22.2277 18.6644ZM9.7723 19.3874L13.898 17.4331L13.2131 15.9872L9.08736 17.9414L9.7723 19.3874ZM22.2277 19.3874C21.9227 19.2429 21.9227 18.8089 22.2277 18.6644L22.9126 20.1104C23.8277 19.677 23.8277 18.3749 22.9126 17.9414L22.2277 19.3874ZM9.7723 18.6644C10.0773 18.8089 10.0773 19.2429 9.7723 19.3874L9.08736 17.9414C8.1723 18.3749 8.1723 19.677 9.08736 20.1104L9.7723 18.6644ZM15.4863 23.1414C15.8114 23.2955 16.1885 23.2955 16.5137 23.1414L15.8288 21.6955C15.9371 21.6441 16.0628 21.6441 16.1712 21.6955L15.4863 23.1414ZM23.5 4.65751C24.0651 5.22382 24.0649 5.22394 24.0648 5.22406C24.0648 5.2241 24.0647 5.22422 24.0646 5.22429C24.0644 5.22444 24.0643 5.22457 24.0642 5.2247C24.0639 5.22496 24.0637 5.22518 24.0635 5.22536C24.0631 5.22572 24.0629 5.22594 24.0629 5.22601C24.0627 5.22615 24.0631 5.22572 24.0641 5.22475C24.0661 5.22282 24.0703 5.21879 24.0766 5.21294C24.0891 5.2012 24.1095 5.18249 24.1364 5.15915C24.1911 5.1117 24.2682 5.04913 24.3571 4.98799C24.5693 4.84219 24.7119 4.79988 24.7546 4.79988L24.7546 3.19988C24.2018 3.19988 23.7171 3.48638 23.4509 3.6694C23.3006 3.77267 23.1756 3.8745 23.0882 3.95036C23.044 3.98867 23.0082 4.02134 22.9824 4.04556C22.9694 4.0577 22.9589 4.06779 22.951 4.07549C22.947 4.07935 22.9436 4.08261 22.941 4.08524C22.9396 4.08655 22.9385 4.08771 22.9374 4.08871C22.9369 4.0892 22.9365 4.08966 22.9361 4.09008C22.9359 4.09028 22.9357 4.09048 22.9355 4.09067C22.9354 4.09076 22.9352 4.09089 22.9352 4.09094C22.9351 4.09107 22.9349 4.0912 23.5 4.65751ZM24.7546 4.79988C25.138 4.79988 25.5056 4.95216 25.7767 5.22321L26.908 4.09181C26.3369 3.52071 25.5623 3.19988 24.7546 3.19988L24.7546 4.79988ZM25.7767 5.22321C26.0477 5.49426 26.2 5.86187 26.2 6.24517L27.8 6.24517C27.8 5.4375 27.4791 4.66291 26.908 4.09181L25.7767 5.22321ZM26.2 6.24517C26.2 6.34739 26.1474 6.52167 26.0409 6.72546C25.9937 6.8159 25.9458 6.89332 25.9102 6.94741C25.8926 6.97411 25.8786 6.9942 25.8699 7.00634C25.8656 7.01239 25.8627 7.01639 25.8614 7.01817C25.8607 7.01906 25.8605 7.01939 25.8606 7.01914C25.8607 7.01901 25.8609 7.01874 25.8613 7.01832C25.8614 7.01811 25.8616 7.01786 25.8618 7.01758C25.8619 7.01743 25.862 7.01728 25.8622 7.01712C25.8622 7.01704 25.8623 7.01691 25.8624 7.01687C25.8625 7.01674 25.8626 7.01661 26.5 7.5C27.1374 7.98339 27.1375 7.98325 27.1377 7.98311C27.1377 7.98306 27.1378 7.98292 27.1379 7.98282C27.138 7.98262 27.1382 7.98241 27.1384 7.98218C27.1387 7.98174 27.1391 7.98125 27.1395 7.98072C27.1403 7.97966 27.1412 7.97843 27.1422 7.97704C27.1443 7.97426 27.1469 7.97081 27.1499 7.96673C27.1559 7.95856 27.1637 7.94782 27.1731 7.93467C27.1918 7.90843 27.2168 7.87236 27.2461 7.82794C27.3042 7.73979 27.3813 7.61516 27.4591 7.46633C27.6026 7.19157 27.8 6.73844 27.8 6.24517L26.2 6.24517ZM25.9343 6.93431L17.4343 15.4343L18.5657 16.5657L27.0657 8.06569L25.9343 6.93431ZM17.8265 15.2191L13.3265 16.2191L13.6735 17.7809L18.1735 16.7809L17.8265 15.2191ZM14.2491 17.2809L15.7491 13.2809L14.2509 12.7191L12.7509 16.7191L14.2491 17.2809ZM15.5604 13.571L24.0604 5.22846L22.9396 4.08656L14.4396 12.429L15.5604 13.571Z" fill="#333333"/>
</svg>
